<svg width="1024" height="1024" viewBox="0 0 1024 1024" fill="none" xmlns="http://www.w3.org/2000/svg">
<rect width="1024" height="1024" rx="228" fill="#F2F2F2"/>
<rect width="1024" height="1024" rx="228" fill="url(#paint0_linear_1_2)" fill-opacity="0.25"/>
<g filter="url(#filter0_ddii_1_2)">
<path d="M529 536.896C518.171 543.149 504.829 543.149 494 536.896L354.496 456.354C343.667 450.101 336.996 438.547 336.996 426.043V264.957C336.996 252.453 343.667 240.899 354.496 234.646L494 154.104C504.829 147.851 518.171 147.851 529 154.104L668.504 234.646C679.333 240.899 686.004 252.453 686.004 264.957V426.043C686.004 438.547 679.333 450.101 668.504 456.354L529 536.896Z" fill="#5392EA"/>
<path d="M529 536.896C518.171 543.149 504.829 543.149 494 536.896L354.496 456.354C343.667 450.101 336.996 438.547 336.996 426.043V264.957C336.996 252.453 343.667 240.899 354.496 234.646L494 154.104C504.829 147.851 518.171 147.851 529 154.104L668.504 234.646C679.333 240.899 686.004 252.453 686.004 264.957V426.043C686.004 438.547 679.333 450.101 668.504 456.354L529 536.896Z" fill="url(#paint1_linear_1_2)" fill-opacity="0.25"/>
</g>
<g filter="url(#filter1_ddii_1_2)">
<path d="M696 487.104C706.829 480.851 720.171 480.851 731 487.104L870.504 567.646C881.333 573.899 888.004 585.453 888.004 597.957V759.043C888.004 771.547 881.333 783.101 870.504 789.354L731 869.896C720.171 876.149 706.829 876.149 696 869.896L556.496 789.354C545.667 783.101 538.996 771.547 538.996 759.043V597.957C538.996 585.453 545.667 573.899 556.496 567.646L696 487.104Z" fill="#18A585"/>
<path d="M696 487.104C706.829 480.851 720.171 480.851 731 487.104L870.504 567.646C881.333 573.899 888.004 585.453 888.004 597.957V759.043C888.004 771.547 881.333 783.101 870.504 789.354L731 869.896C720.171 876.149 706.829 876.149 696 869.896L556.496 789.354C545.667 783.101 538.996 771.547 538.996 759.043V597.957C538.996 585.453 545.667 573.899 556.496 567.646L696 487.104Z" fill="url(#paint2_linear_1_2)" fill-opacity="0.25"/>
</g>
<g filter="url(#filter2_ddii_1_2)">
<path d="M328 869.896C317.171 876.149 303.829 876.149 293 869.896L153.496 789.354C142.667 783.101 135.996 771.547 135.996 759.043V597.957C135.996 585.453 142.667 573.899 153.496 567.646L293 487.104C303.829 480.851 317.171 480.851 328 487.104L467.504 567.646C478.333 573.899 485.004 585.453 485.004 597.957V759.043C485.004 771.547 478.333 783.101 467.504 789.354L328 869.896Z" fill="#DA7B5C"/>
<path d="M328 869.896C317.171 876.149 303.829 876.149 293 869.896L153.496 789.354C142.667 783.101 135.996 771.547 135.996 759.043V597.957C135.996 585.453 142.667 573.899 153.496 567.646L293 487.104C303.829 480.851 317.171 480.851 328 487.104L467.504 567.646C478.333 573.899 485.004 585.453 485.004 597.957V759.043C485.004 771.547 478.333 783.101 467.504 789.354L328 869.896Z" fill="url(#paint3_linear_1_2)" fill-opacity="0.25"/>
</g>
<defs>
<filter id="filter0_ddii_1_2" x="302.996" y="115.415" width="417.008" height="460.171" filterUnits="userSpaceOnUse" color-interpolation-filters="sRGB">
<feFlood flood-opacity="0" result="BackgroundImageFix"/>
<feColorMatrix in="SourceAlpha" type="matrix" values="0 0 0 0 0 0 0 0 0 0 0 0 0 0 0 0 0 0 127 0" result="hardAlpha"/>
<feOffset dx="5" dy="5"/>
<feGaussianBlur stdDeviation="12.5"/>
<feComposite in2="hardAlpha" operator="out"/>
<feColorMatrix type="matrix" values="0 0 0 0 0 0 0 0 0 0 0 0 0 0 0 0 0 0 0.15 0"/>
<feBlend mode="normal" in2="BackgroundImageFix" result="effect1_dropShadow_1_2"/>
<feColorMatrix in="SourceAlpha" type="matrix" values="0 0 0 0 0 0 0 0 0 0 0 0 0 0 0 0 0 0 127 0" result="hardAlpha"/>
<feOffset dx="-5" dy="-5"/>
<feGaussianBlur stdDeviation="12.5"/>
<feComposite in2="hardAlpha" operator="out"/>
<feColorMatrix type="matrix" values="0 0 0 0 1 0 0 0 0 1 0 0 0 0 1 0 0 0 0.15 0"/>
<feBlend mode="normal" in2="effect1_dropShadow_1_2" result="effect2_dropShadow_1_2"/>
<feBlend mode="normal" in="SourceGraphic" in2="effect2_dropShadow_1_2" result="shape"/>
<feColorMatrix in="SourceAlpha" type="matrix" values="0 0 0 0 0 0 0 0 0 0 0 0 0 0 0 0 0 0 127 0" result="hardAlpha"/>
<feOffset dx="-34" dy="-34"/>
<feGaussianBlur stdDeviation="34"/>
<feComposite in2="hardAlpha" operator="arithmetic" k2="-1" k3="1"/>
<feColorMatrix type="matrix" values="0 0 0 0 0.372549 0 0 0 0 0.658824 0 0 0 0 1 0 0 0 1 0"/>
<feBlend mode="normal" in2="shape" result="effect3_innerShadow_1_2"/>
<feColorMatrix in="SourceAlpha" type="matrix" values="0 0 0 0 0 0 0 0 0 0 0 0 0 0 0 0 0 0 127 0" result="hardAlpha"/>
<feOffset dx="34" dy="34"/>
<feGaussianBlur stdDeviation="34"/>
<feComposite in2="hardAlpha" operator="arithmetic" k2="-1" k3="1"/>
<feColorMatrix type="matrix" values="0 0 0 0 0.278431 0 0 0 0 0.486275 0 0 0 0 0.780392 0 0 0 1 0"/>
<feBlend mode="normal" in2="effect3_innerShadow_1_2" result="effect4_innerShadow_1_2"/>
</filter>
<filter id="filter1_ddii_1_2" x="504.996" y="448.415" width="417.008" height="460.171" filterUnits="userSpaceOnUse" color-interpolation-filters="sRGB">
<feFlood flood-opacity="0" result="BackgroundImageFix"/>
<feColorMatrix in="SourceAlpha" type="matrix" values="0 0 0 0 0 0 0 0 0 0 0 0 0 0 0 0 0 0 127 0" result="hardAlpha"/>
<feOffset dx="5" dy="5"/>
<feGaussianBlur stdDeviation="12.5"/>
<feComposite in2="hardAlpha" operator="out"/>
<feColorMatrix type="matrix" values="0 0 0 0 0 0 0 0 0 0 0 0 0 0 0 0 0 0 0.15 0"/>
<feBlend mode="normal" in2="BackgroundImageFix" result="effect1_dropShadow_1_2"/>
<feColorMatrix in="SourceAlpha" type="matrix" values="0 0 0 0 0 0 0 0 0 0 0 0 0 0 0 0 0 0 127 0" result="hardAlpha"/>
<feOffset dx="-5" dy="-5"/>
<feGaussianBlur stdDeviation="12.5"/>
<feComposite in2="hardAlpha" operator="out"/>
<feColorMatrix type="matrix" values="0 0 0 0 1 0 0 0 0 1 0 0 0 0 1 0 0 0 0.15 0"/>
<feBlend mode="normal" in2="effect1_dropShadow_1_2" result="effect2_dropShadow_1_2"/>
<feBlend mode="normal" in="SourceGraphic" in2="effect2_dropShadow_1_2" result="shape"/>
<feColorMatrix in="SourceAlpha" type="matrix" values="0 0 0 0 0 0 0 0 0 0 0 0 0 0 0 0 0 0 127 0" result="hardAlpha"/>
<feOffset dx="-34" dy="-34"/>
<feGaussianBlur stdDeviation="34"/>
<feComposite in2="hardAlpha" operator="arithmetic" k2="-1" k3="1"/>
<feColorMatrix type="matrix" values="0 0 0 0 0.109804 0 0 0 0 0.745098 0 0 0 0 0.6 0 0 0 1 0"/>
<feBlend mode="normal" in2="shape" result="effect3_innerShadow_1_2"/>
<feColorMatrix in="SourceAlpha" type="matrix" values="0 0 0 0 0 0 0 0 0 0 0 0 0 0 0 0 0 0 127 0" result="hardAlpha"/>
<feOffset dx="34" dy="34"/>
<feGaussianBlur stdDeviation="34"/>
<feComposite in2="hardAlpha" operator="arithmetic" k2="-1" k3="1"/>
<feColorMatrix type="matrix" values="0 0 0 0 0.0784314 0 0 0 0 0.54902 0 0 0 0 0.443137 0 0 0 1 0"/>
<feBlend mode="normal" in2="effect3_innerShadow_1_2" result="effect4_innerShadow_1_2"/>
</filter>
<filter id="filter2_ddii_1_2" x="101.996" y="448.415" width="417.008" height="460.171" filterUnits="userSpaceOnUse" color-interpolation-filters="sRGB">
<feFlood flood-opacity="0" result="BackgroundImageFix"/>
<feColorMatrix in="SourceAlpha" type="matrix" values="0 0 0 0 0 0 0 0 0 0 0 0 0 0 0 0 0 0 127 0" result="hardAlpha"/>
<feOffset dx="5" dy="5"/>
<feGaussianBlur stdDeviation="12.5"/>
<feComposite in2="hardAlpha" operator="out"/>
<feColorMatrix type="matrix" values="0 0 0 0 0 0 0 0 0 0 0 0 0 0 0 0 0 0 0.15 0"/>
<feBlend mode="normal" in2="BackgroundImageFix" result="effect1_dropShadow_1_2"/>
<feColorMatrix in="SourceAlpha" type="matrix" values="0 0 0 0 0 0 0 0 0 0 0 0 0 0 0 0 0 0 127 0" result="hardAlpha"/>
<feOffset dx="-5" dy="-5"/>
<feGaussianBlur stdDeviation="12.5"/>
<feComposite in2="hardAlpha" operator="out"/>
<feColorMatrix type="matrix" values="0 0 0 0 1 0 0 0 0 1 0 0 0 0 1 0 0 0 0.15 0"/>
<feBlend mode="normal" in2="effect1_dropShadow_1_2" result="effect2_dropShadow_1_2"/>
<feBlend mode="normal" in="SourceGraphic" in2="effect2_dropShadow_1_2" result="shape"/>
<feColorMatrix in="SourceAlpha" type="matrix" values="0 0 0 0 0 0 0 0 0 0 0 0 0 0 0 0 0 0 127 0" result="hardAlpha"/>
<feOffset dx="-34" dy="-34"/>
<feGaussianBlur stdDeviation="34"/>
<feComposite in2="hardAlpha" operator="arithmetic" k2="-1" k3="1"/>
<feColorMatrix type="matrix" values="0 0 0 0 0.984314 0 0 0 0 0.552941 0 0 0 0 0.415686 0 0 0 1 0"/>
<feBlend mode="normal" in2="shape" result="effect3_innerShadow_1_2"/>
<feColorMatrix in="SourceAlpha" type="matrix" values="0 0 0 0 0 0 0 0 0 0 0 0 0 0 0 0 0 0 127 0" result="hardAlpha"/>
<feOffset dx="34" dy="34"/>
<feGaussianBlur stdDeviation="34"/>
<feComposite in2="hardAlpha" operator="arithmetic" k2="-1" k3="1"/>
<feColorMatrix type="matrix" values="0 0 0 0 0.72549 0 0 0 0 0.411765 0 0 0 0 0.305882 0 0 0 1 0"/>
<feBlend mode="normal" in2="effect3_innerShadow_1_2" result="effect4_innerShadow_1_2"/>
</filter>
<linearGradient id="paint0_linear_1_2" x1="0" y1="0" x2="1024" y2="1024" gradientUnits="userSpaceOnUse">
<stop stop-color="#114455" stop-opacity="0.870588"/>
<stop offset="0.5" stop-color="white" stop-opacity="0.935294"/>
<stop offset="1" stop-color="#DADADA"/>
</linearGradient>
<linearGradient id="paint1_linear_1_2" x1="713" y1="547" x2="310" y2="144" gradientUnits="userSpaceOnUse">
<stop stop-color="#114455" stop-opacity="0.870588"/>
<stop offset="0.504808" stop-color="#4B83D3"/>
<stop offset="1" stop-color="#599CFA"/>
</linearGradient>
<linearGradient id="paint2_linear_1_2" x1="512" y1="477" x2="915" y2="880" gradientUnits="userSpaceOnUse">
<stop stop-color="#114455" stop-opacity="0.870588"/>
<stop offset="0.504808" stop-color="#169578"/>
<stop offset="1" stop-color="#1AB18E"/>
</linearGradient>
<linearGradient id="paint3_linear_1_2" x1="512" y1="880" x2="109" y2="477" gradientUnits="userSpaceOnUse">
<stop stop-color="#114455" stop-opacity="0.870588"/>
<stop offset="0.504808" stop-color="#C46F53"/>
<stop offset="1" stop-color="#E98462"/>
</linearGradient>
</defs>
</svg>
